<svg width="201" height="201" viewBox="0 0 201 201" fill="none" xmlns="http://www.w3.org/2000/svg">
<path d="M183.34 61.2751C183.13 61.3357 182.907 61.3363 182.697 61.2771C182.486 61.2178 182.297 61.1009 182.149 60.9396C181.15 60.1344 180.304 59.1501 179.167 58.5059C176.269 56.882 173.345 55.267 170.022 54.7615C166.965 54.2312 163.835 54.2828 160.797 54.9136C158.362 55.4165 156.008 56.2536 153.802 57.4009C151.155 58.8987 148.783 60.8368 146.789 63.1317C144.843 65.2772 143.323 67.7732 142.311 70.4864C141.608 72.3251 141.263 74.2533 140.788 76.1546C140.215 78.463 139.691 80.7804 139.167 83.0977C138.469 86.2293 137.654 89.3117 137.004 92.4477C136.512 94.8277 135.782 97.1764 135.132 99.534C134.183 102.952 133.225 106.365 132.168 109.752C131.335 112.436 130.408 115.049 129.543 117.702C128.836 119.876 128.021 122.028 127.143 124.108C126.306 126.09 125.325 128.058 124.42 130.036C123.32 132.464 122.092 134.833 120.739 137.131C119.19 139.743 117.631 142.365 115.813 144.839C113.798 147.599 111.895 150.444 109.293 152.704C107.76 153.958 105.967 154.856 104.044 155.334C101.475 156.014 98.7955 156.176 96.1628 155.808C93.758 155.531 91.6846 154.542 89.6067 153.393C87.7841 152.386 86.5391 150.928 85.3479 149.34C83.5566 146.96 81.6624 144.669 80.1487 142.092C79.4188 140.853 78.6217 139.663 77.8469 138.455C75.8496 135.323 74.4435 131.901 72.7641 128.613C71.4718 125.931 70.3179 123.185 69.307 120.386C68.0352 117.093 66.8708 113.756 65.8901 110.36C65.2049 107.998 64.3809 105.676 63.7182 103.305C62.9882 100.67 62.415 97.9906 61.6895 95.3512C60.6819 91.6827 59.8982 87.9696 59.0026 84.2788C58.2099 81.0175 57.5203 77.7293 56.7635 74.4635C56.0738 71.4796 55.0573 68.5851 53.3242 66.0441C52.7335 65.128 52.0557 64.2711 51.3001 63.4851C50.6507 62.8365 50.082 62.0536 49.3923 61.4049C44.8242 56.9244 38.6873 54.3999 32.2856 54.3678C28.4357 54.3159 24.6337 55.2246 21.2244 57.0117C18.9853 58.1928 16.7461 59.5304 15.1295 61.6017C14.937 61.8522 14.628 61.7046 14.2607 61.8209C15.2406 59.716 16.477 57.7401 17.9418 55.938C19.4434 53.9229 21.2293 52.1357 23.244 50.6323C25.4521 48.9392 27.8827 47.5573 30.4674 46.5254C32.4956 45.7205 34.6075 45.1443 36.7638 44.8075C38.5885 44.4959 40.4459 44.4207 42.2899 44.5839C44.1484 44.8165 46.0874 44.8433 47.8384 45.416C49.8984 46.0915 52.0121 46.7581 53.884 47.9704C55.0707 48.7533 56.3201 49.4288 57.4934 50.2475C58.8683 51.2094 59.9833 52.4262 61.2014 53.5446C64.1884 56.2915 66.1274 59.7541 68.0441 63.257C71.0266 68.7283 73.8434 74.2801 76.5841 79.8767C79.5486 85.9251 82.1147 92.1435 84.824 98.3038C86.6153 102.33 88.3394 106.415 90.9905 109.976C92.4996 112.002 94.2417 113.863 96.4987 115.12C98.4825 116.225 101.353 115.63 103.413 113.675C105.65 111.667 107.508 109.275 108.899 106.611C109.893 104.589 111.138 102.688 112.034 100.617C112.62 99.2075 113.225 97.7804 113.74 96.3264C114.394 94.4654 115.464 92.7475 116.194 90.9088C116.924 89.0701 117.802 87.4417 118.455 85.6298C119.145 83.7151 120.394 82.0062 121.142 80.1049C121.778 78.4541 122.571 76.8972 123.296 75.2957C124.42 72.8083 126.046 70.5983 127.139 68.102C127.895 66.3662 129.06 64.8451 129.857 63.1496C131.266 60.219 133.024 57.4687 135.092 54.9583C137.242 52.3925 139.817 50.2149 142.705 48.5207C145.53 46.793 148.647 45.5967 151.903 44.991C154.467 44.4924 157.091 44.3853 159.686 44.6733C163.361 45.0564 166.927 46.1456 170.188 47.881C171.78 48.7245 173.291 49.7129 174.702 50.8336C178.26 53.6935 181.199 57.2459 183.34 61.2751Z" fill="#F8F8F8"/>
<path d="M21.9093 153.267C19.6702 154.135 17.3952 154.941 14.9636 155.16C13.8619 155.258 12.6707 155.384 11.9542 154.413C11.1123 153.276 11.0272 151.961 11.4437 150.53C11.9363 148.834 13.4679 148.015 14.359 146.655C16.0204 144.128 17.8834 141.734 19.2044 138.979C20.1628 136.961 21.045 134.925 21.8376 132.841C22.9138 129.94 23.7116 126.944 24.22 123.893C25.1042 118.809 25.3479 113.635 24.9455 108.49C24.5423 103.144 23.417 97.8773 21.6003 92.8325C20.7539 90.4704 19.5537 88.256 18.4297 86.0057C17.1086 83.3618 15.2278 81.1383 13.6694 78.6823C12.6394 77.0539 12.411 75.157 12.4692 73.2423C12.5498 70.6744 13.3917 68.366 15.3308 66.6839C16.5169 65.6827 18.0504 65.1892 19.5985 65.3105C20.5973 65.3032 21.5853 65.5171 22.4915 65.9368H22.4601C23.5528 66.4915 24.6589 67.0418 25.7158 67.6502C26.7866 68.306 27.8197 69.0214 28.8102 69.7931C30.1159 70.7651 31.3395 71.8423 32.4689 73.0141C33.3651 73.9353 34.1871 74.9255 34.9275 75.9757C35.7694 77.1657 36.5665 78.4318 37.3323 79.6978C39.0213 82.376 40.4218 85.2252 41.5104 88.1978C42.7053 91.4926 43.6132 94.8843 44.2242 98.3352C44.8462 102.137 45.183 105.98 45.2318 109.833C45.199 112.846 44.9881 115.854 44.6004 118.842C44.3586 121.079 43.7048 123.267 43.1495 125.459C42.5172 127.901 41.7059 130.294 40.7223 132.617C39.4518 135.725 37.8418 138.684 35.9216 141.439C34.9703 142.881 33.923 144.258 32.7869 145.559C31.1417 147.441 29.2427 149.085 27.1443 150.445C25.4665 151.535 23.7074 152.495 21.8824 153.317L21.9093 153.267Z" fill="#F8F8F8"/>
<path d="M166.289 153.267C164.05 154.135 161.775 154.94 159.348 155.159C158.246 155.258 157.055 155.383 156.334 154.412C155.492 153.276 155.411 151.961 155.828 150.529C156.321 148.834 157.852 148.015 158.743 146.655C160.405 144.127 162.268 141.734 163.584 138.978C164.543 136.961 165.425 134.925 166.222 132.84C167.296 129.939 168.094 126.944 168.604 123.893C169.487 118.809 169.729 113.634 169.325 108.49C168.926 103.144 167.802 97.8765 165.985 92.8322C165.061 90.4964 164.001 88.2169 162.809 86.0053C161.493 83.3614 159.612 81.138 158.054 78.6819C157.019 77.0535 156.795 75.1567 156.853 73.2419C156.934 70.674 157.776 68.3656 159.711 66.6835C160.897 65.6836 162.43 65.1902 163.978 65.3101C164.979 65.3023 165.968 65.5163 166.876 65.9364H166.844C167.933 66.5001 169.083 66.9832 170.096 67.6453C171.108 68.3075 172.151 69.0725 173.163 69.8017C174.51 70.7178 175.731 71.8068 176.795 73.0406C177.865 74.3827 179.155 75.5414 179.961 77.0669C180.445 77.9885 181.121 78.8027 181.681 79.684C183.396 82.3479 184.8 85.2 185.863 88.184C187.07 91.4756 187.982 94.8682 188.586 98.3214C189.21 102.123 189.548 105.966 189.598 109.819C189.591 112.833 189.374 115.844 188.949 118.829C188.639 121.068 188.168 123.283 187.538 125.454C186.876 127.911 186.061 130.324 185.098 132.679C183.839 135.763 182.23 138.691 180.301 141.407C179.227 142.893 178.273 144.485 176.974 145.787C175.29 147.474 173.589 149.218 171.546 150.422C169.864 151.5 168.107 152.459 166.289 153.289V153.267Z" fill="#F8F8F8"/>
<path d="M22.4956 65.9133L22.3018 65.76L22.3694 65.7014C22.3956 65.7721 22.4257 65.8413 22.4596 65.9088L22.4956 65.9133Z" fill="#F8F8F8"/>
<path d="M21.8818 153.288L22.0487 153.369L21.9089 153.432V153.265L21.8818 153.288Z" fill="#F8F8F8"/>
<path d="M166.292 153.288L166.459 153.369L166.319 153.432V153.265L166.292 153.288Z" fill="#F8F8F8"/>
</svg>
